<?xml version="1.0" encoding="utf-8" standalone="no"?>
<svg width="400px" height="400px" version="1.2" xmlns:xlink="http://www.w3.org/1999/xlink" xmlns:serif="http://www.serif.com/" baseProfile="tiny-ps" stroke-miterlimit="2" stroke-linejoin="round" fill-rule="evenodd" xmlns="http://www.w3.org/2000/svg">
  <title>stillio.com</title>
  <circle cx="200" cy="200" r="197.5" fill="#00b891" />
  <g>
    <path d="M348.272,200.298c-1.534,-0.782 -3.439,-0.167 -4.226,1.364c-3.163,6.202 -8.107,13.103 -14.689,14.175c2.206,-22.148 -12.146,-33.453 -21.219,-28.066c-2.411,1.53 -4.033,4.046 -4.429,6.875c-5.359,4.001 -9.106,9.798 -10.552,16.328c-1.817,5.334 -4.369,10.388 -7.584,15.016c-3.402,4.909 -9.196,11.518 -12.536,6.477c-3.234,-4.855 0.744,-18.49 3.376,-27.518c0.416,-1.417 0.806,-2.773 1.169,-4.057c0.12,-0.342 0.182,-0.702 0.182,-1.064c-0,-1.76 -1.448,-3.207 -3.208,-3.207c-1.32,-0 -2.512,0.815 -2.99,2.047c-5.847,15.814 -11.827,26.41 -17.869,31.681c-4.731,4.129 -11.278,5.945 -14.813,0.771c-2.073,-3.048 -3.234,-7.894 -3.65,-13.608c1.497,-2.011 3.039,-4.129 4.66,-6.352c19.774,-27.234 28.589,-48.479 23.584,-56.834c-1.454,-2.477 -4.314,-3.793 -7.141,-3.287c-14.246,1.967 -28.705,32.833 -27.464,64.533c-2.899,3.955 -6.007,7.752 -9.312,11.375c-5.236,5.573 -12.518,10.906 -16.833,4.652c-1.904,-2.738 -3.003,-6.973 -3.473,-12.032c7.05,-9.173 13.383,-18.877 18.942,-29.023c13.652,-24.807 18.676,-42.287 14.131,-49.197c-1.408,-2.173 -3.941,-3.359 -6.512,-3.048c-7.716,0.745 -17.719,12.51 -24.355,28.616c-5.253,12.758 -9.462,34.189 -8.558,50.561c-1.293,1.622 -2.587,3.154 -3.854,4.599c-1.772,2.028 -3.419,3.747 -4.908,5.2c-5.732,5.555 -12.359,10.826 -15.486,3.544c-2.313,-5.422 -0.665,-16.39 4.43,-30.122c1.833,-4.279 2.923,-7.265 3.074,-7.69c0.143,-0.366 0.217,-0.755 0.217,-1.148c0,-1.72 -1.416,-3.136 -3.136,-3.136c-1.287,-0 -2.449,0.791 -2.92,1.989c-1.213,2.826 -2.268,5.484 -3.198,7.974c-5.271,12.155 -14.742,30.175 -24.222,34.552c-3.65,1.683 -7.654,1.293 -9.276,-2.446c-1.904,-4.429 -2.781,-16.142 7.788,-47.008c6.944,-1.155 13.996,-1.526 21.023,-1.108c0.061,0.004 0.121,0.006 0.182,0.006c1.721,-0 3.137,-1.416 3.137,-3.137c0,-1.653 -1.306,-3.037 -2.955,-3.132c-6.347,-0.374 -12.715,-0.154 -19.022,0.655c2.401,-6.6 5.272,-13.98 8.691,-22.219c0.159,-0.382 0.241,-0.792 0.241,-1.205c0,-1.721 -1.416,-3.138 -3.138,-3.138c-1.264,0 -2.411,0.765 -2.897,1.933c-3.88,9.344 -7.208,17.949 -9.984,25.817c-7.722,1.606 -15.231,4.101 -22.379,7.433c-7.912,-8.532 -22.681,-8.186 -35.784,-7.885c-5.058,0.115 -11.384,-0.674 -12.802,-5.103c-2.294,-7.176 7.088,-21.502 19.739,-30.069c10.632,-7.185 20.643,-7.859 23.859,-4.359c2.932,3.189 1.851,11.792 -9.949,26.383c-0.5,0.572 -0.776,1.306 -0.776,2.065c-0,1.721 1.416,3.136 3.136,3.136c0.988,0 1.921,-0.467 2.512,-1.258c16.895,-20.873 13.29,-30.619 9.746,-34.552c-5.998,-6.53 -19.491,-5.094 -32.001,3.411c-13.475,9.134 -25.79,25.949 -22.193,37.209c1.436,4.483 5.865,9.746 18.915,9.462c10.915,-0.248 23.106,-0.54 29.635,4.59c-11.535,6.024 -21.75,13.741 -31.433,21.759c-68.218,56.7 11.517,94.096 38.733,11.605c4.43,-13.581 5.157,-23.796 2.056,-31.008c5.326,-2.408 10.855,-4.338 16.523,-5.767c-7.805,23.708 -9.976,39.805 -6.432,48.009c3.083,7.088 10.87,8.789 17.666,5.653c5.838,-2.658 11.26,-8.922 15.876,-15.947c-0.168,4.677 0.531,7.973 1.515,10.268c3.384,7.92 11.517,12.305 25.639,-1.48c1.861,-1.825 3.739,-3.845 5.449,-5.794c0.585,3.271 1.807,6.396 3.597,9.196c4.784,6.875 14.255,8.993 26.383,-3.747c1.908,-2.003 3.89,-4.3 5.945,-6.893c0.6,3.596 1.913,7.036 3.863,10.117c5.528,8.107 15.947,7.274 23.433,1.099c3.311,-2.863 6.17,-6.212 8.478,-9.931c-0.132,3.969 0.452,7.495 2.206,10.135c4.005,5.989 12.696,7.663 22.149,-5.227c0.948,-1.294 1.878,-2.658 2.773,-4.164c3.243,13.9 15.806,19.792 27.465,8.921c3.8,-3.627 6.541,-8.222 7.929,-13.289c6.441,-0.142 14.432,-3.907 21.502,-17.719c0.221,-0.439 0.337,-0.923 0.337,-1.415c0,-1.184 -0.67,-2.271 -1.728,-2.802Zm-238.586,19.819c-23.371,70.929 -88.852,45.121 -28.767,-4.82c9.577,-7.973 19.766,-15.601 31.124,-21.502c2.303,5.741 1.515,14.574 -2.357,26.322Zm89.339,-10.818c0.585,-13.767 4.058,-29.936 8.204,-40c2.349,-5.904 5.458,-11.477 9.249,-16.576c9.285,-12.094 14.122,-11.287 9.622,4.509c-1.958,6.857 -5.972,16.727 -13.431,30.282c-4.135,7.512 -8.69,14.786 -13.644,21.785Zm39.761,-24.08c9.577,-35.172 33.534,-38.982 9.746,1.542c-3.402,5.794 -7.77,12.492 -13.289,20.137c0.457,-7.326 1.644,-14.588 3.543,-21.679Zm77.14,45.68c-11.101,10.356 -18.871,-1.684 -17.515,-13.564c0.815,-7.203 3.101,-11.633 5.936,-14.778c2.312,7.584 9.258,15.947 17.524,18.711c-1.147,3.656 -3.191,6.967 -5.945,9.631Zm7.22,-15.85c-4.704,-1.843 -8.771,-6.255 -11.136,-10.561c-1.719,-3.136 -3.73,-9.515 -0.656,-11.348c1.843,-1.099 10.393,0.07 11.784,15.504c0.202,2.13 0.205,4.274 0.008,6.405Z" fill-rule="nonzero" fill="#fff" />
    <path d="M294.56,185.316c-0.575,-3.054 -3.252,-5.298 -6.36,-5.33c-1.644,-0.021 -3.216,0.686 -4.29,1.93c-1.017,1.216 -1.449,2.819 -1.18,4.38c0.579,3.049 3.256,5.284 6.36,5.31c1.64,0.019 3.208,-0.688 4.28,-1.93c1.016,-1.207 1.452,-2.803 1.19,-4.36Z" fill-rule="nonzero" fill="#fff" />
    <path d="M181.2,176.416c-0.584,-3.046 -3.258,-5.28 -6.36,-5.31c-1.64,-0.014 -3.206,0.692 -4.28,1.93c-1.025,1.216 -1.461,2.824 -1.19,4.39c0.587,3.043 3.261,5.271 6.36,5.3c1.641,0.02 3.211,-0.682 4.29,-1.92c1.014,-1.22 1.446,-2.825 1.18,-4.39Z" fill-rule="nonzero" fill="#fff" />
  </g>
</svg>